<svg xmlns="http://www.w3.org/2000/svg" version="1.0" preserveAspectRatio="xMidYMid meet" viewBox="18.69 243.57 68.93 68.93">

<g transform="translate(0.000000,340.000000) scale(0.100000,-0.100000)" fill="#000000" stroke="none">
<path d="M460 956 c-113 -25 -198 -95 -246 -201 -23 -49 -28 -74 -27 -135 1 -142 73 -259 198 -317 52 -24 72 -28 150 -28 81 1 96 4 150 32 76 40 126 92 162 168 37 79 39 203 5 278 -70 156 -231 239 -392 203z m170 -48 c87 -24 168 -110 196 -205 59 -204 -107 -408 -320 -391 -209 17 -342 240 -254 429 68 149 215 214 378 167z"/>
</g>
</svg>