<svg xmlns="http://www.w3.org/2000/svg" version="1.0" preserveAspectRatio="xMidYMid meet" viewBox="288.6 147.27 33.4 29.73">

<g transform="translate(0.000000,440.000000) scale(0.100000,-0.100000)" fill="#000000" stroke="none">
<path d="M2993 2918 c-29 -14 -29 -14 4 -88 l26 -61 -69 -70 -68 -69 46 0 c42 0 49 4 81 42 l35 42 21 -42 c20 -39 25 -42 61 -42 22 0 40 2 40 5 0 3 -11 27 -24 53 -43 87 -43 86 18 156 31 35 56 67 56 70 0 3 -17 6 -37 6 -32 -1 -43 -7 -68 -40 -16 -21 -32 -39 -36 -40 -3 0 -15 20 -27 45 -23 48 -25 49 -59 33z"/>
</g>
</svg>