<svg xmlns="http://www.w3.org/2000/svg" version="1.0" preserveAspectRatio="xMidYMid meet" viewBox="293.48 264 24.17 29">

<g transform="translate(0.000000,340.000000) scale(0.100000,-0.100000)" fill="#000000" stroke="none">
<path d="M2990 741 c0 -11 -3 -26 -6 -35 -5 -13 2 -16 40 -16 25 0 46 -3 46 -7 0 -5 -32 -46 -70 -92 -41 -49 -68 -91 -65 -99 3 -7 5 -16 5 -18 0 -2 47 -4 105 -4 l105 0 0 30 c0 17 1 33 3 37 1 4 -24 6 -55 4 -32 -1 -58 1 -58 5 0 4 26 39 58 77 80 99 83 103 76 121 -5 13 -23 16 -95 16 -81 0 -89 -2 -89 -19z"/>
</g>
</svg>
