<?xml version="1.0" standalone="no"?>
<!DOCTYPE svg PUBLIC "-//W3C//DTD SVG 20010904//EN"
 "http://www.w3.org/TR/2001/REC-SVG-20010904/DTD/svg10.dtd">
<svg version="1.0" xmlns="http://www.w3.org/2000/svg"
 width="340.000000pt" height="340.000000pt" viewBox="0 0 340.000000 340.000000"
 preserveAspectRatio="xMidYMid meet">

<g transform="translate(0.000000,340.000000) scale(0.100000,-0.100000)"
fill="#FFFFFF" stroke="none">
<path d="M210 2785 l0 -325 323 2 322 3 3 323 2 322 -325 0 -325 0 0 -325z
m608 3 l-3 -283 -282 -3 -283 -2 0 285 0 285 285 0 285 0 -2 -282z"/>
<path d="M2993 2918 c-29 -14 -29 -14 4 -88 l26 -61 -69 -70 -68 -69 46 0 c42
0 49 4 81 42 l35 42 21 -42 c20 -39 25 -42 61 -42 22 0 40 2 40 5 0 3 -11 27
-24 53 -43 87 -43 86 18 156 31 35 56 67 56 70 0 3 -17 6 -37 6 -32 -1 -43 -7
-68 -40 -16 -21 -32 -39 -36 -40 -3 0 -15 20 -27 45 -23 48 -25 49 -59 33z"/>
<path d="M1081 2793 c0 -12 139 -120 380 -296 l379 -279 -262 -200 c-145 -110
-316 -239 -380 -287 -64 -47 -117 -93 -117 -101 -1 -9 95 -78 234 -169 138
-91 234 -160 231 -167 -5 -13 -395 -571 -438 -625 -58 -75 -118 -69 755 -67
597 2 782 6 782 15 0 6 -170 125 -379 263 -208 138 -376 253 -374 255 2 3 173
120 379 261 206 140 374 260 374 267 0 6 -115 96 -255 199 -140 104 -254 191
-254 194 1 3 117 170 258 370 141 201 254 369 251 374 -4 6 -295 10 -786 10
-735 0 -779 -1 -778 -17z m1464 -39 c-11 -8 -163 -124 -338 -257 -176 -133
-326 -242 -335 -241 -14 0 -659 469 -696 505 -6 5 267 9 690 9 625 -1 697 -2
679 -16z m-66 -136 c-28 -40 -123 -177 -212 -305 -89 -128 -165 -232 -168
-232 -3 -1 -47 30 -98 68 l-92 69 123 94 c330 253 493 378 496 378 1 0 -20
-33 -49 -72z m-504 -499 c58 -43 94 -77 91 -84 -3 -8 -60 -93 -128 -189 -75
-108 -131 -178 -143 -180 -38 -9 -629 -17 -621 -9 16 16 691 532 697 532 4 1
50 -31 104 -70z m423 -440 c-222 -8 -528 -10 -528 -3 0 5 157 231 217 311 l23
32 226 -167 225 -167 -163 -6z m151 -43 c-29 -27 -688 -470 -699 -470 -8 0
-66 33 -128 73 l-113 73 24 32 c13 17 61 85 107 151 46 66 85 122 88 125 2 3
103 7 225 10 335 8 501 10 496 6z m-867 -155 c-53 -77 -100 -140 -105 -140 -4
-1 -98 60 -209 134 l-202 134 115 4 c63 1 200 4 306 5 l192 2 -97 -139z m115
-358 c-18 -17 -599 -414 -602 -411 -3 2 298 435 375 540 l20 28 110 -73 c84
-55 106 -75 97 -84z m410 -253 l348 -230 -694 0 -694 0 334 229 c184 127 340
230 346 230 7 1 169 -102 360 -229z"/>
<path d="M343 1732 l-182 -317 366 -3 c201 -1 368 0 370 2 5 5 -359 636 -366
636 -3 0 -88 -143 -188 -318z m341 -18 c81 -141 146 -258 143 -260 -2 -2 -137
-3 -301 -2 l-296 3 147 257 c82 142 151 257 154 258 3 0 72 -115 153 -256z"/>
<path d="M3035 1860 l-40 -17 -19 -107 c-15 -84 -17 -112 -8 -131 15 -32 48
-45 85 -34 28 8 28 7 21 -24 -12 -58 -32 -87 -61 -87 -15 0 -35 8 -45 17 -18
16 -20 16 -43 -12 l-24 -30 20 -17 c14 -12 38 -18 70 -18 40 0 54 5 84 31 20
18 42 44 50 59 16 31 95 338 95 370 l0 20 -40 -20 c-38 -19 -40 -23 -57 -102
-13 -64 -24 -90 -46 -112 -47 -48 -53 -23 -22 104 14 61 25 115 23 119 -2 5
-21 1 -43 -9z"/>
<path d="M460 956 c-113 -25 -198 -95 -246 -201 -23 -49 -28 -74 -27 -135 1
-142 73 -259 198 -317 52 -24 72 -28 150 -28 81 1 96 4 150 32 76 40 126 92
162 168 37 79 39 203 5 278 -70 156 -231 239 -392 203z m170 -48 c87 -24 168
-110 196 -205 59 -204 -107 -408 -320 -391 -209 17 -342 240 -254 429 68 149
215 214 378 167z"/>
<path d="M2990 741 c0 -11 -3 -26 -6 -35 -5 -13 2 -16 40 -16 25 0 46 -3 46
-7 0 -5 -32 -46 -70 -92 -41 -49 -68 -91 -65 -99 3 -7 5 -16 5 -18 0 -2 47 -4
105 -4 l105 0 0 30 c0 17 1 33 3 37 1 4 -24 6 -55 4 -32 -1 -58 1 -58 5 0 4
26 39 58 77 80 99 83 103 76 121 -5 13 -23 16 -95 16 -81 0 -89 -2 -89 -19z"/>
</g>
</svg>
