<svg xmlns="http://www.w3.org/2000/svg" version="1.0" preserveAspectRatio="xMidYMid meet" viewBox="290.1 152 31.9 48">

<g transform="translate(0.000000,340.000000) scale(0.100000,-0.100000)" fill="#000000" stroke="none">
<path d="M3035 1860 l-40 -17 -19 -107 c-15 -84 -17 -112 -8 -131 15 -32 48 -45 85 -34 28 8 28 7 21 -24 -12 -58 -32 -87 -61 -87 -15 0 -35 8 -45 17 -18 16 -20 16 -43 -12 l-24 -30 20 -17 c14 -12 38 -18 70 -18 40 0 54 5 84 31 20 18 42 44 50 59 16 31 95 338 95 370 l0 20 -40 -20 c-38 -19 -40 -23 -57 -102 -13 -64 -24 -90 -46 -112 -47 -48 -53 -23 -22 104 14 61 25 115 23 119 -2 5 -21 1 -43 -9z"/>
</g>
</svg>